<?xml version="1.0" encoding="UTF-8"?>
<!DOCTYPE svg PUBLIC "-//W3C//DTD SVG 1.1//EN" "http://www.w3.org/Graphics/SVG/1.1/DTD/svg11.dtd">
<svg xmlns="http://www.w3.org/2000/svg" xml:space="preserve" width="51.5978mm" height="15.9904mm" version="1.1" style="shape-rendering:geometricPrecision; text-rendering:geometricPrecision; image-rendering:optimizeQuality; fill-rule:evenodd; clip-rule:evenodd"
viewBox="0 0 1590.29 492.84"
 xmlns:xlink="http://www.w3.org/1999/xlink">
 <defs>
  <style type="text/css">
   <![CDATA[
    .fill {fill:#071E68}
    .fil0 {fill:#EA812E}
   ]]>
  </style>
 </defs>
 <g id="Layer_x0020_1">
  <g id="_2120321549872">
   <polygon class="fil0" points="238.28,242.86 237.94,212.03 317.91,170.77 317.95,130.16 162.54,207.98 162.45,313.57 249.99,269.48 250.32,300.31 162.43,344.57 162.4,378.88 317.8,301.06 317.88,202.39 "/>
   <path class="fil0" d="M154.88 314.5l0.08 0.69 -0.43 -107.02 -58.99 -7.81c-1.62,35.07 -0.9,72.37 2.19,106.52l57.16 7.62z"/>
   <path class="fil0" d="M101.27 337.53c1.8,12.49 3.95,24.26 6.49,34.89l47.46 7.05 -0.14 -34.77 -53.81 -7.18z"/>
   <path class="fil0" d="M256.91 117.96l-159.39 74.13 60.74 8.14 159.02 -78.05c-23.55,-1.49 -43.37,-2.96 -60.37,-4.22z"/>
   <path class="fil0" d="M218.69 115.26c-24.9,-1.53 -53.6,-3.89 -53.6,-3.89 0,0 -39.19,13.28 -63.32,24.19 -1.61,10.21 -2.94,21.12 -4,32.49l120.5 -52.6 0.42 -0.19z"/>
   <path class="fill" d="M68.4 463.67c38.78,26.93 81.35,4.51 107.22,-29.04 -1.26,53.61 -83.19,84.16 -107.22,29.04z"/>
   <path class="fill" d="M150.27 117.66c-31.9,-76.16 -54.56,-77.65 -85.03,0.72 6.54,-94.25 76.71,-92.22 85.03,-0.72z"/>
   <path class="fill" d="M45.86 304.66c9.56,47.73 12.25,143.48 76.15,145.74 -71.67,14.57 -84.19,-95.59 -76.15,-145.74z"/>
   <path class="fill" d="M127.25 375.32c-16.3,54.45 -45.67,14.2 -48.63,-45 -7.12,30.97 -0.67,81.07 31.84,81.11 4.41,0.01 8.64,-1.98 11.53,-5.3 6.34,-7.28 10.49,-17.77 13.31,-29.62l-8.06 -1.2z"/>
   <path class="fill" d="M176.02 112.24c1.26,0.1 2.63,0.2 4.05,0.31 -64.19,-280.18 -260.75,15.15 -143.51,314.48 -15.06,-103.14 -28.07,-209.42 1.69,-309.59 41.42,-147.66 101.51,-104.25 137.77,-5.19z"/>
   <path class="fill" d="M106.76 109.83c-16.97,71.1 -16.19,200.56 3.16,271.09 -35.91,-78.62 -36.24,-191.79 -3.16,-271.09z"/>
  </g>
  <g id="_2120321499232">
   <path class="fill" d="M483.53 295.65c20.37,0.35 20.27,-31.64 0,-31.34 -23.86,-1.22 -63.61,6.25 -81.07,-15.1 -20.16,-19.04 -20.14,-53.54 0,-72.67 19.34,-25.3 87.88,-11.98 114.57,-15.11 15.33,-0.59 24.15,20.04 12.71,30.55 -5.3,10.22 -81.55,3.36 -90.95,5.23 -20.25,-0.29 -20.39,31.69 0,31.34 41.76,-1.42 93.54,-4.6 96.17,51.44 -0.95,68.11 -85.96,49.09 -129.67,51.43 -15.5,0.68 -24.09,-20.01 -12.71,-30.54 5.23,-10.24 81.57,-3.34 90.95,-5.22z"/>
   <path class="fill" d="M646.7 221.16l54.5 -54.39c10.5,-11.49 31.11,-2.78 30.55,12.6 0,0 0,134.1 0,134.1 0.24,9.67 -8.3,18.16 -17.94,17.94 -9.67,0.23 -18.08,-8.24 -17.83,-17.94l0 -90.96c-54.15,55.29 -44.43,55.06 -98.45,0l0 90.96c0.25,9.7 -8.16,18.16 -17.82,17.94 -9.77,0.23 -18.18,-8.18 -17.94,-17.94 0,0 0,-134.1 0,-134.1 -0.55,-15.42 20.02,-24.1 30.55,-12.6 0,0 54.39,54.39 54.39,54.39z"/>
   <path class="fill" d="M1058.08 224.12c0.94,-37.31 -53.72,-25.03 -76.08,-26.91l0 53.71c22.39,-1.91 76.96,10.43 76.08,-26.8zm-76.08 62.56c-0.47,14.37 5.09,45.37 -17.83,44.73 -9.76,0.24 -18.17,-8.17 -17.94,-17.93l0 -134.1c-0.22,-9.64 8.28,-18.18 17.94,-17.94l66.99 0c60.96,-2.28 86.17,84.69 33.5,115.48l23.96 23.96c11.4,10.53 2.73,31.23 -12.72,30.55 -11.7,2.42 -43.89,-39 -52.12,-44.74l-41.79 0z"/>
   <path class="fill" d="M1125.07 197.2c-23.32,0.54 -23.25,-36.22 0,-35.77 0,0 111.73,0 111.73,0 15.33,-0.61 24.15,20.05 12.72,30.54 -6.88,9.4 -41.06,3.8 -50.76,5.22l0 116.28c0.25,9.7 -8.16,18.17 -17.83,17.94 -9.65,0.23 -18.22,-8.18 -17.94,-17.94l0 -116.28 -37.92 0z"/>
   <path class="fill" d="M1295.05 331.42c-9.76,0.24 -18.17,-8.18 -17.94,-17.94 1.68,-6.47 -4.91,-147.52 5.22,-146.7 2.27,-10.68 116.5,-3.29 124.45,-5.34 4.92,0 9.16,1.78 12.72,5.34 11.39,10.51 2.71,31.1 -12.72,30.43 0,0 -93.9,0 -93.9,0l0 31.34 71.54 0c9.65,-0.23 18.22,8.18 17.94,17.94 0.27,9.67 -8.36,18.08 -17.94,17.83 0,0 -71.54,0 -71.54,0l0 31.34 93.91 0c15.48,-0.68 24.09,20.06 12.72,30.55 -2.46,10.42 -116.44,3.24 -124.45,5.22z"/>
   <path class="fill" d="M1516.35 218.55l42.13 -50.64c9.46,-12.27 30.79,-5.6 31.57,9.88 4.17,10.95 -45.7,60.09 -50.42,68.7 4.96,8.92 54.41,57.48 50.42,68.69 -0.84,15.39 -22.17,22.11 -31.57,9.76 0,0 -42.13,-50.53 -42.13,-50.53l-42.13 50.53c-9.43,12.36 -30.73,5.62 -31.57,-9.76 -4.17,-10.96 45.7,-60.1 50.42,-68.7 -4.96,-8.92 -54.42,-57.49 -50.42,-68.7 0.78,-15.48 22.11,-22.16 31.57,-9.88 0,-0.01 42.13,50.64 42.13,50.64z"/>
   <path class="fill" d="M921.93 305.53l-66.99 -134.22c-1.51,-3.03 -3.71,-5.45 -6.59,-7.26 -8.58,-5.45 -21.14,-2.03 -25.43,7.26 -1.31,7.61 -77.3,142.02 -68.02,147.84 4.18,14.83 26.68,16.4 32.93,2.27 0,0 11.81,-23.62 11.81,-23.62l0.01 0 23.32 -46.55 15.96 -31.92 15.96 31.92c0.13,0.25 5.27,10.54 5.39,10.78l-0.01 0c6.19,12.3 23.78,47.71 29.75,59.39 9.82,21.09 42.89,4.61 31.91,-15.9z"/>
  </g>
 </g>
</svg>
