<svg xmlns="http://www.w3.org/2000/svg" viewBox="0 0 184 44.08"><title>Pinduoduo logo</title><path d="M486.68,502.57h4.88a6.69,6.69,0,0,1,4.49,1.41,4.7,4.7,0,0,1,1.65,3.8,4.77,4.77,0,0,1-1.65,3.82,6.77,6.77,0,0,1-4.49,1.39h-1.48v6.31h-3.39Zm4.9,7.51a3,3,0,0,0,2.06-.6,2.2,2.2,0,0,0,.67-1.7,2.13,2.13,0,0,0-.67-1.67,2.88,2.88,0,0,0-2.06-.62h-1.51v4.59Zm9.77-4.21a2,2,0,0,1-2-2,1.92,1.92,0,0,1,.57-1.41,1.85,1.85,0,0,1,1.39-.6,2,2,0,0,1,2,2,1.85,1.85,0,0,1-.6,1.39A1.92,1.92,0,0,1,501.35,505.86Zm-1.55,1.63H503V519.3H499.8Zm5.93,0h3.16v1.46a4.54,4.54,0,0,1,1.67-1.29,5,5,0,0,1,2.2-.5,4.3,4.3,0,0,1,3.06,1.05,3.87,3.87,0,0,1,1.15,3v8.06h-3.16v-6.93a2.08,2.08,0,0,0-2.25-2.29,2.48,2.48,0,0,0-1.94.86,3.3,3.3,0,0,0-.74,2.27v6.1h-3.16Zm19.06,12.14a5.54,5.54,0,0,1-5.07-3,7.55,7.55,0,0,1,0-6.57,5.42,5.42,0,0,1,2.13-2.15,6,6,0,0,1,3-.74,4.75,4.75,0,0,1,3.75,1.46v-6.53h3.16V519.3h-3.16v-1.24A4.84,4.84,0,0,1,524.78,519.63Zm.65-2.92a3.16,3.16,0,0,0,2.37-.93,3.29,3.29,0,0,0,.93-2.39,3.21,3.21,0,0,0-.93-2.37,3.12,3.12,0,0,0-2.37-1,3.19,3.19,0,0,0-2.39,1,3.25,3.25,0,0,0-.91,2.37,3.33,3.33,0,0,0,.91,2.39A3.24,3.24,0,0,0,525.43,516.72Zm13.15,2.92a4.45,4.45,0,0,1-3.08-1,4,4,0,0,1-1.12-3.06v-8.06h3.16v6.93a2.28,2.28,0,0,0,.6,1.72,2.34,2.34,0,0,0,1.65.57,2.44,2.44,0,0,0,1.91-.84,3.32,3.32,0,0,0,.76-2.29v-6.1h3.16V519.3h-3.16v-1.46a4.71,4.71,0,0,1-1.7,1.31A5.1,5.1,0,0,1,538.58,519.63Zm15.66,0a6.74,6.74,0,0,1-3.25-.81,6.48,6.48,0,0,1-2.37-2.27,6.22,6.22,0,0,1,0-6.31A6.29,6.29,0,0,1,551,508a6.59,6.59,0,0,1,3.25-.84,6.45,6.45,0,0,1,3.23.84,6.06,6.06,0,0,1,2.37,2.25,6.07,6.07,0,0,1,0,6.31,6.24,6.24,0,0,1-2.37,2.27A6.6,6.6,0,0,1,554.24,519.63Zm0-2.92a3.38,3.38,0,0,0,1.65-.41,3.26,3.26,0,0,0,1.22-1.2,3.49,3.49,0,0,0,0-3.44,3.08,3.08,0,0,0-1.22-1.17,3.23,3.23,0,0,0-1.65-.43,3.36,3.36,0,0,0-1.67.43,3.12,3.12,0,0,0-1.2,1.17,3.39,3.39,0,0,0,1.2,4.64A3.51,3.51,0,0,0,554.24,516.72Zm13.83,2.92a5.54,5.54,0,0,1-5.07-3,7.55,7.55,0,0,1,0-6.57,5.42,5.42,0,0,1,2.13-2.15,6,6,0,0,1,3-.74,4.75,4.75,0,0,1,3.75,1.46v-6.53H575V519.3h-3.16v-1.24A4.84,4.84,0,0,1,568.07,519.63Zm.65-2.92a3.16,3.16,0,0,0,2.37-.93,3.29,3.29,0,0,0,.93-2.39,3.21,3.21,0,0,0-.93-2.37,3.11,3.11,0,0,0-2.37-1,3.19,3.19,0,0,0-2.39,1,3.25,3.25,0,0,0-.91,2.37,3.34,3.34,0,0,0,.91,2.39A3.24,3.24,0,0,0,568.71,516.72Zm13.15,2.92a4.45,4.45,0,0,1-3.08-1,4,4,0,0,1-1.12-3.06v-8.06h3.16v6.93a2.28,2.28,0,0,0,.6,1.72,2.34,2.34,0,0,0,1.65.57,2.44,2.44,0,0,0,1.91-.84,3.32,3.32,0,0,0,.76-2.29v-6.1h3.16V519.3h-3.16v-1.46a4.71,4.71,0,0,1-1.7,1.31A5.1,5.1,0,0,1,581.86,519.63Zm15.66,0a6.74,6.74,0,0,1-3.25-.81,6.48,6.48,0,0,1-2.37-2.27,6.22,6.22,0,0,1,0-6.31,6.29,6.29,0,0,1,2.37-2.25,6.59,6.59,0,0,1,3.25-.84,6.45,6.45,0,0,1,3.23.84,6.06,6.06,0,0,1,2.37,2.25,6.07,6.07,0,0,1,0,6.31,6.24,6.24,0,0,1-2.37,2.27A6.6,6.6,0,0,1,597.52,519.63Zm0-2.92a3.37,3.37,0,0,0,1.65-.41,3.24,3.24,0,0,0,1.22-1.2,3.49,3.49,0,0,0,0-3.44,3.07,3.07,0,0,0-1.22-1.17,3.22,3.22,0,0,0-1.65-.43,3.36,3.36,0,0,0-1.67.43,3.13,3.13,0,0,0-1.2,1.17,3.39,3.39,0,0,0,1.2,4.64A3.51,3.51,0,0,0,597.52,516.72Z" transform="translate(-420 -489.96)"/><path d="M447.08,509.35l-.7,2.59-1.05.48,0-1.07.08-2-1,0-.28-.86-.63.53-.34,3.59-1.95-1.26,1-.55-.09-1.6-.81.38-.55-1.81,1.26-.19-.05-1.51L441,504.84l.93-.18,1.17-2.07.74,1.74.74.26,0,.51,1.29-.06-.62-2.48,2.18.89-.5,1.56,1.39-.26.82-2.44,1.91,1.33-1.71,1.18,1.6.11.55,1.41-1.28,0-.16,1.59,1.28,0,.47,1.44-1.67.11-.39,2.63-1,.63-.66-3.4-.93,0Zm.39-2.63-.12.92.11.21,1.13,0-.16-1.44-1,.21Zm-1.91-.33-.86,0-.26-.9-.71.64v1.18l1.09.07-.25.54,1,0Z" transform="translate(-420 -489.96)" style="fill:#e02e24"/><path d="M420.47,498.26,432.32,490v16.59Z" transform="translate(-420 -489.96)" style="fill:#e02e24"/><path d="M431.85,507.26,420,515.55V499Z" transform="translate(-420 -489.96)" style="fill:#e02e24"/><path d="M445.12,498.26,433.27,490v16.59Z" transform="translate(-420 -489.96)" style="fill:#e02e24"/><path d="M420.47,516.27,432.32,508v16.59Z" transform="translate(-420 -489.96)" style="fill:#e02e24"/><path d="M433.74,525.27,445.59,517v16.59Z" transform="translate(-420 -489.96)" style="fill:#e02e24"/><path d="M445.12,516.27,433.27,508v16.59Z" transform="translate(-420 -489.96)" style="fill:#e02e24"/><path d="M472.14,498.26,460.29,490v16.59Z" transform="translate(-420 -489.96)" style="fill:#e02e24"/><path d="M460.76,507.26l11.85,8.29V499Z" transform="translate(-420 -489.96)" style="fill:#e02e24"/><path d="M447.49,498.26,459.34,490v16.59Z" transform="translate(-420 -489.96)" style="fill:#e02e24"/><path d="M472.14,516.27,460.29,508v16.59Z" transform="translate(-420 -489.96)" style="fill:#e02e24"/><path d="M459.34,525.27l-12.8-8.77V534Z" transform="translate(-420 -489.96)" style="fill:#e02e24"/><path d="M447.49,516.27,459.34,508v16.59Z" transform="translate(-420 -489.96)" style="fill:#e02e24"/></svg>